<?xml version="1.0" standalone="no"?>
<!DOCTYPE svg PUBLIC "-//W3C//DTD SVG 20010904//EN"
 "http://www.w3.org/TR/2001/REC-SVG-20010904/DTD/svg10.dtd">
<svg version="1.0" xmlns="http://www.w3.org/2000/svg"
 width="1028.000000pt" height="1028.000000pt" viewBox="0 0 1028.000000 1028.000000"
 preserveAspectRatio="xMidYMid meet">
<metadata>
Created by potrace 1.11, written by Peter Selinger 2001-2013
</metadata>
<g transform="translate(0.000000,1028.000000) scale(0.100000,-0.100000)"
fill="#000000" stroke="none">
<path d="M4210 10254 c-197 -27 -368 -85 -493 -168 -69 -46 -216 -194 -272
-275 -84 -120 -129 -267 -124 -401 3 -109 1 -122 -19 -116 -24 8 -119 -26
-222 -80 -158 -82 -411 -302 -563 -491 -195 -242 -275 -379 -352 -603 -154
-447 -188 -874 -115 -1490 10 -91 26 -235 35 -320 44 -423 151 -960 235 -1182
10 -26 14 -50 10 -53 -4 -3 -35 -60 -67 -127 -63 -130 -95 -185 -239 -415
-112 -178 -213 -299 -470 -565 -217 -224 -227 -239 -171 -266 23 -11 46 -10
145 3 64 9 153 25 197 36 102 25 339 113 497 185 143 65 158 70 158 56 0 -26
-32 -161 -55 -228 -32 -96 -93 -217 -141 -280 -98 -129 -362 -405 -493 -516
-56 -46 -66 -64 -51 -84 17 -20 93 -18 198 5 206 46 503 102 510 96 12 -10
-264 -302 -368 -390 -110 -93 -117 -99 -233 -227 -113 -124 -142 -168 -132
-198 8 -26 33 -32 93 -20 95 18 312 23 447 11 212 -20 611 -102 670 -139 6 -4
-51 -12 -125 -18 -271 -24 -680 -102 -1080 -206 -107 -28 -218 -55 -246 -62
-28 -6 -57 -16 -65 -22 -8 -6 -30 -17 -49 -24 -19 -7 -70 -31 -113 -52 -74
-37 -79 -41 -73 -66 10 -46 146 -306 262 -503 l111 -188 -83 -85 c-46 -48
-102 -118 -125 -158 -24 -40 -68 -112 -98 -160 -31 -47 -71 -110 -90 -140 -69
-107 -191 -311 -191 -319 0 -4 1946 -7 4325 -6 3833 2 4327 4 4335 17 25 38
-13 270 -64 396 -110 271 -223 449 -400 632 l-50 52 114 108 c63 60 157 145
208 191 108 96 130 125 115 150 -12 20 -180 134 -287 195 -45 25 -92 53 -106
61 -14 8 -63 32 -110 54 -183 84 -615 293 -623 301 -5 4 35 11 90 14 356 23
341 17 303 110 -21 49 -45 77 -179 203 -86 80 -232 206 -325 281 l-169 136
-74 150 c-85 175 -146 327 -168 417 -17 72 -19 125 -6 133 8 5 96 -42 301
-165 218 -129 429 -202 504 -173 30 11 16 42 -81 175 -322 445 -505 810 -582
1161 l-19 87 70 103 c264 392 396 681 449 983 31 173 34 551 6 710 -56 312
-152 585 -325 923 -68 134 -121 246 -118 250 8 8 83 -74 175 -193 143 -184
364 -410 663 -678 273 -245 326 -280 343 -228 6 19 -74 202 -280 646 -51 110
-112 243 -135 295 -63 144 -261 531 -334 653 -91 153 -182 270 -343 442 -365
389 -465 482 -758 701 -564 423 -1141 708 -1710 844 -144 34 -481 94 -655 115
-161 19 -601 19 -750 -1z"/>
<path d="M2280 5161 c0 -6 5 -13 10 -16 6 -3 10 1 10 9 0 9 -4 16 -10 16 -5 0
-10 -4 -10 -9z"/>
</g>
</svg>
